<?xml version="1.0" encoding="utf-8"?>
<!-- Generator: Adobe Illustrator 24.0.1, SVG Export Plug-In . SVG Version: 6.00 Build 0)  -->
<svg version="1.1" id="Capa_1" xmlns="http://www.w3.org/2000/svg" xmlns:xlink="http://www.w3.org/1999/xlink" x="0px" y="0px"
	 viewBox="0 0 100 100" style="enable-background:new 0 0 100 100;" xml:space="preserve">
<style type="text/css">
	.st0{fill:#282323;stroke:#000000;stroke-miterlimit:10;}
	.st1{fill:#FF0000;}
</style>
<g>
	<path class="st0" d="M46.47,34.9c0,0-5.63-5.37-3.63-7.5s6.63,3.75,6.63,3.75s-1.25-9.75,1.75-9.63s2.13,10.38,2.13,10.38
		s6.13-11.5,9.25-9.88s-4.13,12.25-4.13,12.25s8.87,4.13,8.5,16.75S49.84,62.78,49.84,62.78s-8.88-0.75-8.5-13
		S46.47,34.9,46.47,34.9z"/>
	<g>
		<g>
			<path class="st1" d="M45.38,36.6c1.96,0.93,4.08,1.34,6.24,1.08c2.19-0.26,4.37-0.76,6.5-1.3c1.87-0.47,1.08-3.36-0.8-2.89
				c-1.86,0.47-3.76,0.92-5.67,1.18c-1.62,0.22-3.28,0.04-4.77-0.67c-0.73-0.35-1.62-0.2-2.05,0.54
				C44.46,35.2,44.65,36.25,45.38,36.6L45.38,36.6z"/>
		</g>
	</g>
</g>
<g>
	<path class="st0" d="M53.22,50.59c0,0-5.63-5.38-3.63-7.5s6.63,3.75,6.63,3.75s-1.25-9.75,1.75-9.63s2.13,10.38,2.13,10.38
		s6.13-11.5,9.25-9.88s-4.13,12.25-4.13,12.25s8.87,4.13,8.5,16.75S56.59,78.46,56.59,78.46s-8.88-0.75-8.5-13
		S53.22,50.59,53.22,50.59z"/>
	<g>
		<g>
			<path class="st1" d="M52.13,52.29c1.96,0.93,4.08,1.34,6.24,1.08c2.19-0.26,4.37-0.76,6.5-1.3c1.87-0.47,1.08-3.36-0.8-2.89
				c-1.86,0.47-3.76,0.92-5.67,1.18c-1.62,0.22-3.28,0.04-4.77-0.67c-0.73-0.35-1.62-0.2-2.05,0.54
				C51.21,50.89,51.4,51.94,52.13,52.29L52.13,52.29z"/>
		</g>
	</g>
</g>
<g>
	<path class="st0" d="M31.41,50.59c0,0-5.63-5.38-3.63-7.5s6.63,3.75,6.63,3.75s-1.25-9.75,1.75-9.63s2.13,10.38,2.13,10.38
		s6.13-11.5,9.25-9.88s-4.13,12.25-4.13,12.25s8.87,4.13,8.5,16.75S34.78,78.46,34.78,78.46s-8.88-0.75-8.5-13
		S31.41,50.59,31.41,50.59z"/>
	<g>
		<g>
			<path class="st1" d="M30.32,52.29c1.96,0.93,4.08,1.34,6.24,1.08c2.19-0.26,4.37-0.76,6.5-1.3c1.87-0.47,1.08-3.36-0.8-2.89
				c-1.86,0.47-3.76,0.92-5.67,1.18c-1.62,0.22-3.28,0.04-4.77-0.67c-0.73-0.35-1.62-0.2-2.05,0.54
				C29.4,50.89,29.58,51.94,30.32,52.29L30.32,52.29z"/>
		</g>
	</g>
</g>
</svg>
