<?xml version="1.0" encoding="utf-8"?>
<!-- Generator: Adobe Illustrator 24.0.1, SVG Export Plug-In . SVG Version: 6.00 Build 0)  -->
<svg version="1.1" id="Capa_1" xmlns="http://www.w3.org/2000/svg" xmlns:xlink="http://www.w3.org/1999/xlink" x="0px" y="0px"
	 viewBox="0 0 100 100" style="enable-background:new 0 0 100 100;" xml:space="preserve">
<style type="text/css">
	.st0{fill:none;stroke:#000000;stroke-miterlimit:10;}
	.st1{fill:#FFFFFF;stroke:#000000;stroke-width:0.25;stroke-miterlimit:10;}
	.st2{fill:#00FF00;}
</style>
<rect x="33.88" y="26.56" class="st0" width="30.63" height="46.88"/>
<path class="st1" d="M35.75,34c1.61-0.93,4.03-2,7-2c2.68,0,4.13,0.88,6.88,1.5c2.26,0.51,5.56,0.89,9.88,0.13"/>
<path class="st1" d="M37.38,49.13c2.08-0.93,5.4-2.11,9.63-2.38c4.99-0.31,8.97,0.8,11.25,1.63"/>
<path class="st1" d="M37.25,54.38C40.98,55.9,43.97,56.1,46,56c3.42-0.17,5.04-1.22,8.88-1.38c3.09-0.12,5.62,0.42,7.25,0.88"/>
<path class="st1" d="M38,62.13c4.69-1.34,8.23-1.04,10.63-0.5c4.15,0.94,7.23,3.16,10.38,1.75c1.23-0.55,2.03-1.47,2.5-2.13"/>
<path class="st1" d="M38.25,68.13c3.12,1.12,9.21,2.76,16.25,1c2.08-0.52,3.87-1.24,5.38-2"/>
<path class="st1" d="M38,39.88c3.82-2.2,6.68-2.33,8.63-2c2.99,0.51,4.25,2.17,7.5,2.5c2.77,0.29,5.15-0.58,6.75-1.38"/>
<polygon class="st2" points="34.25,33.24 37.25,33.24 37.25,36.24 40.25,36.24 40.25,39.24 37.25,39.24 37.25,42.24 34.25,42.24 
	34.25,39.24 31.25,39.24 31.25,36.24 34.25,36.24 "/>
</svg>
